<mxfile host="app.diagrams.net" modified="2023-06-25T14:28:38.347Z" agent="Mozilla/5.0 (Windows NT 10.0; Win64; x64) AppleWebKit/537.36 (KHTML, like Gecko) Chrome/114.0.0.0 Safari/537.36" etag="m0fR9AHSg4isYdJkz4HT" version="21.5.0" type="device">
  <diagram name="第 1 页" id="n9Xg_hSOzZlk7Ejaemtl">
    <mxGraphModel dx="636" dy="2693" grid="1" gridSize="10" guides="1" tooltips="1" connect="1" arrows="1" fold="1" page="1" pageScale="1" pageWidth="827" pageHeight="1169" background="#ffffff" math="0" shadow="0">
      <root>
        <mxCell id="0" />
        <mxCell id="1" parent="0" />
        <mxCell id="bfFssN5el2MYpajiRFpz-7" value="&lt;font style=&quot;font-size: 16px;&quot; color=&quot;#ffffff&quot;&gt;Redis Cache&lt;/font&gt;" style="swimlane;whiteSpace=wrap;html=1;startSize=23;fillColor=#AC9DCF;strokeColor=none;swimlaneFillColor=#f2f2f2;" vertex="1" parent="1">
          <mxGeometry x="100" y="-2330" width="510" height="200" as="geometry" />
        </mxCell>
        <mxCell id="bfFssN5el2MYpajiRFpz-8" value="flightTicket# {flight_id}" style="rounded=1;whiteSpace=wrap;html=1;strokeWidth=0;" vertex="1" parent="bfFssN5el2MYpajiRFpz-7">
          <mxGeometry x="16" y="40" width="100" height="30" as="geometry" />
        </mxCell>
        <mxCell id="bfFssN5el2MYpajiRFpz-115" value="Sorted Set" style="shape=table;startSize=20;container=1;collapsible=0;childLayout=tableLayout;" vertex="1" parent="bfFssN5el2MYpajiRFpz-7">
          <mxGeometry x="146" y="42" width="120" height="100" as="geometry" />
        </mxCell>
        <mxCell id="bfFssN5el2MYpajiRFpz-116" value="" style="shape=tableRow;horizontal=0;startSize=0;swimlaneHead=0;swimlaneBody=0;strokeColor=inherit;top=0;left=0;bottom=0;right=0;collapsible=0;dropTarget=0;fillColor=none;points=[[0,0.5],[1,0.5]];portConstraint=eastwest;" vertex="1" parent="bfFssN5el2MYpajiRFpz-115">
          <mxGeometry y="20" width="120" height="20" as="geometry" />
        </mxCell>
        <mxCell id="bfFssN5el2MYpajiRFpz-117" value="&lt;i&gt;Key&lt;/i&gt;" style="shape=partialRectangle;html=1;whiteSpace=wrap;connectable=0;strokeColor=default;overflow=hidden;fillColor=#CCCCCC;top=0;left=0;bottom=0;right=0;pointerEvents=1;" vertex="1" parent="bfFssN5el2MYpajiRFpz-116">
          <mxGeometry width="60" height="20" as="geometry">
            <mxRectangle width="60" height="20" as="alternateBounds" />
          </mxGeometry>
        </mxCell>
        <mxCell id="bfFssN5el2MYpajiRFpz-118" value="&lt;i&gt;Value&lt;/i&gt;" style="shape=partialRectangle;html=1;whiteSpace=wrap;connectable=0;strokeColor=inherit;overflow=hidden;fillColor=#CCCCCC;top=0;left=0;bottom=0;right=0;pointerEvents=1;" vertex="1" parent="bfFssN5el2MYpajiRFpz-116">
          <mxGeometry x="60" width="60" height="20" as="geometry">
            <mxRectangle width="60" height="20" as="alternateBounds" />
          </mxGeometry>
        </mxCell>
        <mxCell id="bfFssN5el2MYpajiRFpz-119" value="" style="shape=tableRow;horizontal=0;startSize=0;swimlaneHead=0;swimlaneBody=0;strokeColor=inherit;top=0;left=0;bottom=0;right=0;collapsible=0;dropTarget=0;fillColor=none;points=[[0,0.5],[1,0.5]];portConstraint=eastwest;" vertex="1" parent="bfFssN5el2MYpajiRFpz-115">
          <mxGeometry y="40" width="120" height="20" as="geometry" />
        </mxCell>
        <mxCell id="bfFssN5el2MYpajiRFpz-120" value="1A" style="shape=partialRectangle;html=1;whiteSpace=wrap;connectable=0;strokeColor=inherit;overflow=hidden;fillColor=none;top=0;left=0;bottom=0;right=0;pointerEvents=1;" vertex="1" parent="bfFssN5el2MYpajiRFpz-119">
          <mxGeometry width="60" height="20" as="geometry">
            <mxRectangle width="60" height="20" as="alternateBounds" />
          </mxGeometry>
        </mxCell>
        <mxCell id="bfFssN5el2MYpajiRFpz-121" value="1" style="shape=partialRectangle;html=1;whiteSpace=wrap;connectable=0;strokeColor=inherit;overflow=hidden;fillColor=none;top=0;left=0;bottom=0;right=0;pointerEvents=1;" vertex="1" parent="bfFssN5el2MYpajiRFpz-119">
          <mxGeometry x="60" width="60" height="20" as="geometry">
            <mxRectangle width="60" height="20" as="alternateBounds" />
          </mxGeometry>
        </mxCell>
        <mxCell id="bfFssN5el2MYpajiRFpz-122" value="" style="shape=tableRow;horizontal=0;startSize=0;swimlaneHead=0;swimlaneBody=0;strokeColor=inherit;top=0;left=0;bottom=0;right=0;collapsible=0;dropTarget=0;fillColor=none;points=[[0,0.5],[1,0.5]];portConstraint=eastwest;" vertex="1" parent="bfFssN5el2MYpajiRFpz-115">
          <mxGeometry y="60" width="120" height="20" as="geometry" />
        </mxCell>
        <mxCell id="bfFssN5el2MYpajiRFpz-123" value="1B" style="shape=partialRectangle;html=1;whiteSpace=wrap;connectable=0;strokeColor=inherit;overflow=hidden;fillColor=none;top=0;left=0;bottom=0;right=0;pointerEvents=1;" vertex="1" parent="bfFssN5el2MYpajiRFpz-122">
          <mxGeometry width="60" height="20" as="geometry">
            <mxRectangle width="60" height="20" as="alternateBounds" />
          </mxGeometry>
        </mxCell>
        <mxCell id="bfFssN5el2MYpajiRFpz-124" value="2" style="shape=partialRectangle;html=1;whiteSpace=wrap;connectable=0;strokeColor=inherit;overflow=hidden;fillColor=none;top=0;left=0;bottom=0;right=0;pointerEvents=1;" vertex="1" parent="bfFssN5el2MYpajiRFpz-122">
          <mxGeometry x="60" width="60" height="20" as="geometry">
            <mxRectangle width="60" height="20" as="alternateBounds" />
          </mxGeometry>
        </mxCell>
        <mxCell id="bfFssN5el2MYpajiRFpz-125" value="" style="shape=tableRow;horizontal=0;startSize=0;swimlaneHead=0;swimlaneBody=0;strokeColor=inherit;top=0;left=0;bottom=0;right=0;collapsible=0;dropTarget=0;fillColor=none;points=[[0,0.5],[1,0.5]];portConstraint=eastwest;" vertex="1" parent="bfFssN5el2MYpajiRFpz-115">
          <mxGeometry y="80" width="120" height="20" as="geometry" />
        </mxCell>
        <mxCell id="bfFssN5el2MYpajiRFpz-126" value="..." style="shape=partialRectangle;html=1;whiteSpace=wrap;connectable=0;strokeColor=inherit;overflow=hidden;fillColor=none;top=0;left=0;bottom=0;right=0;pointerEvents=1;" vertex="1" parent="bfFssN5el2MYpajiRFpz-125">
          <mxGeometry width="60" height="20" as="geometry">
            <mxRectangle width="60" height="20" as="alternateBounds" />
          </mxGeometry>
        </mxCell>
        <mxCell id="bfFssN5el2MYpajiRFpz-127" value="..." style="shape=partialRectangle;html=1;whiteSpace=wrap;connectable=0;strokeColor=inherit;overflow=hidden;fillColor=none;top=0;left=0;bottom=0;right=0;pointerEvents=1;" vertex="1" parent="bfFssN5el2MYpajiRFpz-125">
          <mxGeometry x="60" width="60" height="20" as="geometry">
            <mxRectangle width="60" height="20" as="alternateBounds" />
          </mxGeometry>
        </mxCell>
        <mxCell id="bfFssN5el2MYpajiRFpz-130" value="&lt;font style=&quot;font-size: 11px;&quot; color=&quot;#bababa&quot;&gt;&lt;i&gt;*Value is Ticket_ID&lt;/i&gt;&lt;/font&gt;" style="text;html=1;strokeColor=none;fillColor=none;align=center;verticalAlign=middle;whiteSpace=wrap;rounded=0;" vertex="1" parent="bfFssN5el2MYpajiRFpz-7">
          <mxGeometry x="206" y="152" width="60" height="30" as="geometry" />
        </mxCell>
        <mxCell id="bfFssN5el2MYpajiRFpz-131" value="" style="shape=flexArrow;endArrow=classic;html=1;rounded=0;endWidth=6.153846153846153;endSize=3.230769230769231;width=5.769230769230769;fillColor=default;strokeColor=default;strokeWidth=0;" edge="1" parent="bfFssN5el2MYpajiRFpz-7">
          <mxGeometry width="50" height="50" relative="1" as="geometry">
            <mxPoint x="120" y="54.6" as="sourcePoint" />
            <mxPoint x="140" y="54.6" as="targetPoint" />
          </mxGeometry>
        </mxCell>
        <mxCell id="bfFssN5el2MYpajiRFpz-132" value="ticketSellCount# {flight_id}" style="rounded=1;whiteSpace=wrap;html=1;strokeWidth=0;" vertex="1" parent="bfFssN5el2MYpajiRFpz-7">
          <mxGeometry x="300" y="42" width="120" height="30" as="geometry" />
        </mxCell>
        <mxCell id="bfFssN5el2MYpajiRFpz-133" value="" style="shape=flexArrow;endArrow=classic;html=1;rounded=0;endWidth=6.153846153846153;endSize=3.230769230769231;width=5.769230769230769;fillColor=default;strokeColor=default;strokeWidth=0;" edge="1" parent="bfFssN5el2MYpajiRFpz-7">
          <mxGeometry width="50" height="50" relative="1" as="geometry">
            <mxPoint x="428" y="56.809999999999945" as="sourcePoint" />
            <mxPoint x="448" y="56.809999999999945" as="targetPoint" />
          </mxGeometry>
        </mxCell>
        <mxCell id="bfFssN5el2MYpajiRFpz-135" value="int" style="rounded=0;whiteSpace=wrap;html=1;" vertex="1" parent="bfFssN5el2MYpajiRFpz-7">
          <mxGeometry x="453" y="48" width="40" height="18" as="geometry" />
        </mxCell>
      </root>
    </mxGraphModel>
  </diagram>
</mxfile>
